<?xml version="1.0" encoding="utf-8"?>
<!-- Generator: Adobe Illustrator 24.3.0, SVG Export Plug-In . SVG Version: 6.00 Build 0)  -->
<svg version="1.1" id="Layer_1" xmlns="http://www.w3.org/2000/svg" xmlns:xlink="http://www.w3.org/1999/xlink" x="0px" y="0px"
	 viewBox="0 0 84.6 84.6" style="enable-background:new 0 0 84.6 84.6;" xml:space="preserve">
<style type="text/css">
	.st0{display:none;}
	.st1{display:inline;}
	.st2{fill:none;}
	.st3{fill:none;stroke:#FF6200;stroke-width:3.81;stroke-linecap:round;stroke-linejoin:round;}
	.st4{fill:#FF6200;}
	.st5{font-family:'INGMe-Bold';}
	.st6{font-size:27.83px;}
	.st7{display:none;fill:none;stroke:#FF6200;stroke-width:4;stroke-miterlimit:10;}
	.st8{display:inline;fill:#FF6200;}
	.st9{display:inline;fill:none;stroke:#FF6200;stroke-width:4;stroke-linejoin:round;stroke-miterlimit:10;}
	.st10{fill:none;stroke:#FF6200;stroke-width:4;stroke-linejoin:round;stroke-miterlimit:10;}
</style>
<g id="Layer_2_1_" class="st0">
	<g id="Layer_1-2" class="st1">
		<rect class="st2" width="84.6" height="84.6"/>
		<polyline class="st3" points="54.5,53.9 54.5,66.7 12.9,66.7 12.9,36.2 33.4,21.6 41.7,26.7 		"/>
		<polyline class="st3" points="42.1,20.7 49.3,15.4 70.4,30 70.4,60.6 60.3,60.6 		"/>
		<text transform="matrix(1 0 0 1 41.73 49.83)" class="st4 st5 st6">0</text>
	</g>
</g>
<circle class="st7" cx="42" cy="42" r="29.7"/>
<g class="st0">
	<path class="st8" d="M50.9,45.5L50.9,45.5c-1.8,0-3.3,1.5-3.3,3.3s1.5,3.3,3.3,3.3s3.3-1.5,3.3-3.3S52.7,45.5,50.9,45.5"/>
	<path class="st8" d="M34.7,37.2c1.8,0,3.3-1.5,3.3-3.3s-1.5-3.3-3.3-3.3l0,0c-1.8,0-3.3,1.5-3.3,3.3C31.4,35.7,32.8,37.2,34.7,37.2
		"/>
	<path class="st8" d="M34,53.1c-0.8,0.8-2.1,0.8-2.9,0s-0.8-2.1,0-2.9l19.4-19.4c0.8-0.8,2.1-0.8,2.9,0c0.8,0.8,0.8,2.1,0,2.9
		L34,53.1z"/>
</g>
<g class="st0">
	<circle class="st9" cx="42.2" cy="42" r="30.6"/>
	<line class="st9" x1="30.2" y1="54" x2="20.6" y2="63.6"/>
	<line class="st9" x1="63.9" y1="20.3" x2="54.4" y2="29.8"/>
</g>
<g class="st0">
	<path class="st9" d="M28.3,39.4c0-7.7,6.3-12.8,14-12.8s14,5.1,14,12.8s-6.3,12.8-14,12.8S28.3,47.2,28.3,39.4z"/>
	<path class="st9" d="M56.2,39.4c0,1,0,4,0,5.1c0,7.7-6.3,12.8-14,12.8s-14-5.1-14-12.8c0-1,0-4.6,0-5.5"/>
</g>
<path class="st10" d="M34.1,63h20.4l4.9,6.5l3-7.8c0,0,4.9-3.7,6-5.2c1.1-1.6,2.9-7.5,2.9-7.5h6V36.7h-5.6c0,0-2.6-4.9-4.9-7.2
	c-2.3-2.4-7.4-5.4-7.4-5.4v-8.4l-9.1,5.7c0,0-15.1-0.8-20.6,1.6c-4.7,2-12.5,6-12.5,18.6s7.4,16.6,7.4,16.6l5.2,11.3L34.1,63z"/>
<g>
	<circle class="st4" cx="59.2" cy="35.6" r="2.2"/>
</g>
<path class="st10" d="M15.9,40.8c0,0-2.8,0.4-5.7-1.9c-2.9-2.3-4.1-5.8-4.1-5.8"/>
<image style="display:none;overflow:visible;" width="78" height="76" xlink:href="../Downloads/icon-7ani.png"  transform="matrix(0.853 0 0 0.7791 11 12.6954)">
</image>
<path class="st10" d="M32.5,31.9c0,0,3.7-2.2,8.6-2.2c5,0,8.1,2.2,8.1,2.2"/>
</svg>
